<svg xmlns="http://www.w3.org/2000/svg" width="165" height="72" viewBox="0 0 165 72"><g><g><path fill="#21243d" d="M8.743 4.414c0 2.44-1.954 4.418-4.368 4.418C1.957 8.832 0 6.854 0 4.414 0 1.974 1.957-.004 4.375-.004c2.414 0 4.368 1.978 4.368 4.418zm31.253 0c0 2.44-1.958 4.418-4.376 4.418-2.41 0-4.367-1.978-4.367-4.418 0-2.44 1.957-4.418 4.367-4.418 2.418 0 4.376 1.978 4.376 4.418zm31.25 0c0 2.44-1.955 4.418-4.373 4.418-2.41 0-4.367-1.978-4.367-4.418 0-2.44 1.957-4.418 4.367-4.418 2.418 0 4.372 1.978 4.372 4.418zm31.252 0c0 2.44-1.954 4.418-4.368 4.418-2.418 0-4.375-1.978-4.375-4.418 0-2.44 1.957-4.418 4.375-4.418 2.414 0 4.368 1.978 4.368 4.418zm31.253 0c0 2.44-1.958 4.418-4.376 4.418-2.41 0-4.363-1.978-4.363-4.418 0-2.44 1.953-4.418 4.363-4.418 2.418 0 4.376 1.978 4.376 4.418zm31.25 0c0 2.44-1.955 4.418-4.365 4.418-2.418 0-4.375-1.978-4.375-4.418 0-2.44 1.957-4.418 4.375-4.418 2.41 0 4.364 1.978 4.364 4.418zM8.742 36c0 2.435-1.954 4.417-4.368 4.417C1.957 40.417 0 38.435 0 36c0-2.44 1.957-4.419 4.375-4.419 2.414 0 4.368 1.979 4.368 4.419zm31.253 0c0 2.435-1.958 4.417-4.376 4.417-2.41 0-4.367-1.982-4.367-4.417 0-2.44 1.957-4.419 4.367-4.419 2.418 0 4.376 1.979 4.376 4.419zm31.25 0c0 2.435-1.955 4.417-4.373 4.417-2.41 0-4.367-1.982-4.367-4.417 0-2.44 1.957-4.419 4.367-4.419 2.418 0 4.372 1.979 4.372 4.419zm31.252 0c0 2.435-1.954 4.417-4.368 4.417-2.418 0-4.375-1.982-4.375-4.417 0-2.44 1.957-4.419 4.375-4.419 2.414 0 4.368 1.979 4.368 4.419zm31.253 0c0 2.435-1.958 4.417-4.376 4.417-2.41 0-4.363-1.982-4.363-4.417 0-2.44 1.953-4.419 4.363-4.419 2.418 0 4.376 1.979 4.376 4.419zM165 36c0 2.435-1.955 4.417-4.365 4.417-2.418 0-4.375-1.982-4.375-4.417 0-2.44 1.957-4.419 4.375-4.419 2.41 0 4.364 1.979 4.364 4.419zM8.742 67.58c0 2.44-1.954 4.423-4.368 4.423C1.957 72.003 0 70.02 0 67.58c0-2.436 1.957-4.41 4.375-4.41 2.414 0 4.368 1.974 4.368 4.41zm31.253 0c0 2.44-1.958 4.423-4.376 4.423-2.41 0-4.367-1.983-4.367-4.422 0-2.436 1.957-4.41 4.367-4.41 2.418 0 4.376 1.974 4.376 4.41zm31.25 0c0 2.44-1.955 4.423-4.373 4.423-2.41 0-4.367-1.983-4.367-4.422 0-2.436 1.957-4.41 4.367-4.41 2.418 0 4.372 1.974 4.372 4.41zm31.252 0c0 2.44-1.954 4.423-4.368 4.423-2.418 0-4.375-1.983-4.375-4.422 0-2.436 1.957-4.41 4.375-4.41 2.414 0 4.368 1.974 4.368 4.41zm31.253 0c0 2.44-1.958 4.423-4.376 4.423-2.41 0-4.363-1.983-4.363-4.422 0-2.436 1.953-4.41 4.363-4.41 2.418 0 4.376 1.974 4.376 4.41zm31.25 0c0 2.44-1.955 4.423-4.365 4.423-2.418 0-4.375-1.983-4.375-4.422 0-2.436 1.957-4.41 4.375-4.41 2.41 0 4.364 1.974 4.364 4.41z"/></g></g></svg>