<svg xmlns="http://www.w3.org/2000/svg" width="175" height="175" viewBox="0 0 175 175"><g><g><path fill="#21243d" d="M115.682 4.662L4.099 113.992a86.87 86.87 0 0 1-2.518-9.989L105.767 1.92a86.75 86.75 0 0 1 9.915 2.742zM90.229.065L.029 88.444c-.003-.317-.024-.629-.024-.946 0-4.194.314-8.313.884-12.35L76.917.656c3.472-.419 7-.66 10.584-.66.915 0 1.82.041 2.728.07zm45.535 14.454L13.56 134.256a87.293 87.293 0 0 1-4.52-8.028L127.82 9.847a87.364 87.364 0 0 1 7.944 4.672zm28.138 30.34L43.315 163.013a87.823 87.823 0 0 1-7.607-5L159.05 37.162a87.625 87.625 0 0 1 4.852 7.698zm-12.59-17.197L26.373 150.078a87.844 87.844 0 0 1-6.048-6.529L144.9 21.49a88.037 88.037 0 0 1 6.411 6.173zm21.042 38.452L64.396 171.893a86.756 86.756 0 0 1-9.466-3.184L169.363 56.587a86.872 86.872 0 0 1 2.991 9.527zm-34.7 93.065a87.115 87.115 0 0 1-25.132 12.17l58.303-57.125a87.2 87.2 0 0 1-12.67 24.868zm37.133-65.919L91.466 174.9c-1.315.059-2.635.1-3.965.1a88.59 88.59 0 0 1-8.427-.411l95.648-93.717c.164 2.19.275 4.395.275 6.627 0 1.938-.086 3.855-.21 5.762z"/></g></g></svg>