<svg xmlns="http://www.w3.org/2000/svg" width="191" height="191" viewBox="0 0 191 191"><g><g><path fill="#ffd17e" d="M126.259 5.088L4.474 124.414a94.809 94.809 0 0 1-2.748-10.902L115.436 2.096c3.694.784 7.301 1.794 10.823 2.992zM98.479.07L.032 96.531c-.004-.346-.026-.687-.026-1.033 0-4.578.342-9.074.965-13.48L83.949.717c3.79-.457 7.64-.72 11.552-.72.999 0 1.986.045 2.978.075zm49.698 15.776L14.8 146.53a95.203 95.203 0 0 1-4.933-8.762l129.64-127.02a95.384 95.384 0 0 1 8.67 5.099zm30.71 33.114L47.276 177.916a95.724 95.724 0 0 1-8.302-5.457l134.618-131.9a95.632 95.632 0 0 1 5.297 8.402zm-13.74-18.77L28.784 163.799a96.004 96.004 0 0 1-6.602-7.125L158.15 23.453a96.075 96.075 0 0 1 6.997 6.738zm22.965 41.968L70.283 187.609a94.722 94.722 0 0 1-10.33-3.475L184.846 61.761a94.83 94.83 0 0 1 3.265 10.398zM150.24 173.732a95.076 95.076 0 0 1-27.429 13.283l63.633-62.348a95.176 95.176 0 0 1-13.828 27.142zm40.529-71.945l-90.94 89.103a96.22 96.22 0 0 1-4.327.11c-3.104 0-6.17-.16-9.198-.45L190.697 88.265c.179 2.39.3 4.797.3 7.233 0 2.115-.094 4.208-.23 6.289z"/></g></g></svg>